<svg width="48" height="48" viewBox="0 0 48 48" fill="none" xmlns="http://www.w3.org/2000/svg">
<rect width="34" height="34" rx="10" transform="matrix(-1 0 0 1 41 7)" fill="url(#paint0_linear_1_1800)"/>
<g clip-path="url(#clip0_1_1800)">
<g clip-path="url(#clip1_1_1800)">
<rect width="14.4" height="5.76" transform="matrix(-0.866009 0.500028 -3.18609e-05 1 34.5601 20.16)" fill="#06299D"/>
<rect x="-0.103925" y="0.180003" width="14.16" height="5.52" transform="matrix(-0.866009 0.500028 -3.18609e-05 1 34.3661 20.212)" stroke="white" stroke-opacity="0.7" stroke-width="0.24"/>
<rect width="9.6" height="5.76" transform="matrix(-0.866009 -0.500028 3.18609e-05 1 22.0798 27.3603)" fill="#06299D"/>
<rect width="9.6" height="5.76" transform="matrix(-0.866009 -0.500028 3.18609e-05 1 22.0798 27.3603)" fill="black" fill-opacity="0.3"/>
<rect x="-0.103917" y="0.0599967" width="9.36" height="5.52" transform="matrix(-0.866009 -0.500028 3.18609e-05 1 21.8859 27.3083)" stroke="white" stroke-opacity="0.7" stroke-width="0.24"/>
<g clip-path="url(#clip2_1_1800)">
<rect width="9.6" height="14.4" transform="matrix(-0.866041 -0.499972 -0.866041 0.499972 34.5601 20.1597)" fill="white" fill-opacity="0.7"/>
<rect width="9.6" height="14.4" transform="matrix(-0.866041 -0.499972 -0.866041 0.499972 34.5601 20.1597)" fill="#06299D"/>
<rect opacity="0.4" width="9.6" height="14.4" transform="matrix(-0.866041 -0.499972 -0.866041 0.499972 34.5601 20.1597)" fill="white"/>
<rect x="-0.20785" width="9.36" height="14.16" transform="matrix(-0.866041 -0.499972 -0.866041 0.499972 34.1722 20.0558)" stroke="white" stroke-opacity="0.7" stroke-width="0.24"/>
</g>
<g clip-path="url(#clip3_1_1800)">
<g clip-path="url(#clip4_1_1800)">
<mask id="mask0_1_1800" style="mask-type:alpha" maskUnits="userSpaceOnUse" x="28" y="19" width="5" height="3">
<circle cx="1.44" cy="1.44" r="1.44" transform="matrix(-0.866041 -0.499972 -0.866041 0.499972 32.9791 20.1594)" fill="#D9D9D9"/>
</mask>
<g mask="url(#mask0_1_1800)">
<rect width="2.88" height="2.88" transform="matrix(-0.866041 -0.499972 -0.866041 0.499972 32.9791 20.1594)" fill="#06299D"/>
</g>
<circle opacity="0.4" cx="1.44" cy="1.44" r="1.44" transform="matrix(-0.866041 -0.499972 -0.866041 0.499972 32.9791 20.1594)" fill="white"/>
<circle cx="1.44" cy="1.44" r="1.32" transform="matrix(-0.866041 -0.499972 -0.866041 0.499972 32.9791 20.1594)" stroke="white" stroke-opacity="0.7" stroke-width="0.24"/>
</g>
<mask id="mask1_1_1800" style="mask-type:alpha" maskUnits="userSpaceOnUse" x="28" y="18" width="5" height="4">
<path d="M32.115 19.3374L32.1169 19.3286C32.1503 19.1063 32.0245 18.8493 31.6658 18.6421C31.3439 18.4563 30.9141 18.3598 30.4783 18.3598C30.0424 18.3598 29.6126 18.4563 29.2908 18.6421C28.9685 18.8282 28.8347 19.0557 28.8347 19.2583V19.3784H28.8318V20.0981H28.8347V20.2182C28.8348 20.4207 28.9685 20.6484 29.2908 20.8344C29.6126 21.0202 30.0424 21.1157 30.4783 21.1157C30.9142 21.1157 31.3439 21.0203 31.6658 20.8344C32.0248 20.6271 32.1504 20.3694 32.1169 20.1469L32.115 20.1382V19.3374Z" fill="#9C9C9C" stroke="#212121" stroke-width="0.24"/>
</mask>
<g mask="url(#mask1_1_1800)">
<rect width="3.84" height="2.88" transform="matrix(-1 0 0 1 32.4819 18.2397)" fill="#06299D"/>
<path d="M28.7146 19.258C28.7145 18.9974 28.8867 18.7368 29.2312 18.5379C29.9199 18.1403 31.0366 18.1403 31.7254 18.5379C32.1088 18.7593 32.2788 19.0572 32.2353 19.3465V20.1293C32.2788 20.4185 32.1089 20.7165 31.7254 20.9379C31.0366 21.3355 29.9199 21.3355 29.2312 20.9379C28.8868 20.7391 28.7147 20.4786 28.7146 20.218H28.7121V19.258H28.7146Z" fill="#06299D"/>
<path d="M32.115 19.3374L32.1169 19.3286C32.1503 19.1063 32.0245 18.8493 31.6658 18.6421C31.3439 18.4563 30.9141 18.3598 30.4783 18.3598C30.0424 18.3598 29.6126 18.4563 29.2908 18.6421C28.9685 18.8282 28.8347 19.0557 28.8347 19.2583V19.3784H28.8318V20.0981H28.8347V20.2182C28.8348 20.4207 28.9685 20.6484 29.2908 20.8344C29.6126 21.0202 30.0424 21.1157 30.4783 21.1157C30.9142 21.1157 31.3439 21.0203 31.6658 20.8344C32.0248 20.6271 32.1504 20.3694 32.1169 20.1469L32.115 20.1382V19.3374Z" stroke="white" stroke-opacity="0.7" stroke-width="0.24"/>
</g>
<mask id="mask2_1_1800" style="mask-type:alpha" maskUnits="userSpaceOnUse" x="28" y="18" width="5" height="3">
<circle cx="1.44" cy="1.44" r="1.44" transform="matrix(-0.866041 -0.499972 -0.866041 0.499972 32.9791 19.1996)" fill="#D9D9D9"/>
</mask>
<g mask="url(#mask2_1_1800)">
<rect width="2.88" height="2.88" transform="matrix(-0.866041 -0.499972 -0.866041 0.499972 32.9791 19.1996)" fill="#06299D"/>
</g>
<circle opacity="0.4" cx="1.44" cy="1.44" r="1.44" transform="matrix(-0.866041 -0.499972 -0.866041 0.499972 32.9791 19.1996)" fill="white"/>
<circle cx="1.44" cy="1.44" r="1.32" transform="matrix(-0.866041 -0.499972 -0.866041 0.499972 32.9791 19.1996)" stroke="white" stroke-opacity="0.7" stroke-width="0.24"/>
<g clip-path="url(#clip5_1_1800)">
<mask id="mask3_1_1800" style="mask-type:alpha" maskUnits="userSpaceOnUse" x="24" y="21" width="5" height="3">
<circle cx="1.44" cy="1.44" r="1.44" transform="matrix(-0.866041 -0.499972 -0.866041 0.499972 28.823 22.5589)" fill="#D9D9D9"/>
</mask>
<g mask="url(#mask3_1_1800)">
<rect width="2.88" height="2.88" transform="matrix(-0.866041 -0.499972 -0.866041 0.499972 28.823 22.5589)" fill="#06299D"/>
</g>
<circle opacity="0.4" cx="1.44" cy="1.44" r="1.44" transform="matrix(-0.866041 -0.499972 -0.866041 0.499972 28.823 22.5589)" fill="white"/>
<circle cx="1.44" cy="1.44" r="1.32" transform="matrix(-0.866041 -0.499972 -0.866041 0.499972 28.823 22.5589)" stroke="white" stroke-opacity="0.7" stroke-width="0.24"/>
</g>
<mask id="mask4_1_1800" style="mask-type:alpha" maskUnits="userSpaceOnUse" x="24" y="20" width="5" height="4">
<path d="M27.9589 21.7369L27.9608 21.7281C27.9942 21.5058 27.8684 21.2488 27.5096 21.0416C27.1878 20.8558 26.758 20.7594 26.3221 20.7594C25.8863 20.7594 25.4565 20.8558 25.1346 21.0416C24.8123 21.2278 24.6785 21.4553 24.6786 21.6578V21.7779H24.6757V22.4977H24.6786V22.6178C24.6787 22.8203 24.8124 23.0479 25.1346 23.234C25.4565 23.4198 25.8863 23.5152 26.3221 23.5152C26.758 23.5152 27.1878 23.4198 27.5096 23.234C27.8687 23.0267 27.9943 22.7689 27.9608 22.5465L27.9589 22.5377V21.7369Z" fill="#9C9C9C" stroke="#212121" stroke-width="0.24"/>
</mask>
<g mask="url(#mask4_1_1800)">
<rect width="3.84" height="2.88" transform="matrix(-1 0 0 1 28.3258 20.6393)" fill="#06299D"/>
<path d="M24.5585 21.6576C24.5584 21.397 24.7306 21.1363 25.075 20.9375C25.7638 20.5399 26.8805 20.5399 27.5692 20.9375C27.9527 21.1588 28.1226 21.4568 28.0792 21.746V22.5288C28.1227 22.8181 27.9527 23.1161 27.5692 23.3375C26.8805 23.7351 25.7638 23.7351 25.0751 23.3375C24.7307 23.1387 24.5585 22.8781 24.5585 22.6176H24.556V21.6576H24.5585Z" fill="#06299D"/>
<path d="M27.9589 21.7369L27.9608 21.7281C27.9942 21.5058 27.8684 21.2488 27.5096 21.0416C27.1878 20.8558 26.758 20.7594 26.3221 20.7594C25.8863 20.7594 25.4565 20.8558 25.1346 21.0416C24.8123 21.2278 24.6785 21.4553 24.6786 21.6578V21.7779H24.6757V22.4977H24.6786V22.6178C24.6787 22.8203 24.8124 23.0479 25.1346 23.234C25.4565 23.4198 25.8863 23.5152 26.3221 23.5152C26.758 23.5152 27.1878 23.4198 27.5096 23.234C27.8687 23.0267 27.9943 22.7689 27.9608 22.5465L27.9589 22.5377V21.7369Z" stroke="white" stroke-opacity="0.7" stroke-width="0.24"/>
</g>
<mask id="mask5_1_1800" style="mask-type:alpha" maskUnits="userSpaceOnUse" x="24" y="20" width="5" height="3">
<circle cx="1.44" cy="1.44" r="1.44" transform="matrix(-0.866041 -0.499972 -0.866041 0.499972 28.823 21.5992)" fill="#D9D9D9"/>
</mask>
<g mask="url(#mask5_1_1800)">
<rect width="2.88" height="2.88" transform="matrix(-0.866041 -0.499972 -0.866041 0.499972 28.823 21.5992)" fill="#06299D"/>
</g>
<circle opacity="0.4" cx="1.44" cy="1.44" r="1.44" transform="matrix(-0.866041 -0.499972 -0.866041 0.499972 28.823 21.5992)" fill="white"/>
<circle cx="1.44" cy="1.44" r="1.32" transform="matrix(-0.866041 -0.499972 -0.866041 0.499972 28.823 21.5992)" stroke="white" stroke-opacity="0.7" stroke-width="0.24"/>
<g clip-path="url(#clip6_1_1800)">
<mask id="mask6_1_1800" style="mask-type:alpha" maskUnits="userSpaceOnUse" x="20" y="23" width="4" height="3">
<circle cx="1.44" cy="1.44" r="1.44" transform="matrix(-0.866041 -0.499972 -0.866041 0.499972 24.6669 24.9584)" fill="#D9D9D9"/>
</mask>
<g mask="url(#mask6_1_1800)">
<rect width="2.88" height="2.88" transform="matrix(-0.866041 -0.499972 -0.866041 0.499972 24.6669 24.9584)" fill="#06299D"/>
</g>
<circle opacity="0.4" cx="1.44" cy="1.44" r="1.44" transform="matrix(-0.866041 -0.499972 -0.866041 0.499972 24.6669 24.9584)" fill="white"/>
<circle cx="1.44" cy="1.44" r="1.32" transform="matrix(-0.866041 -0.499972 -0.866041 0.499972 24.6669 24.9584)" stroke="white" stroke-opacity="0.7" stroke-width="0.24"/>
</g>
<mask id="mask7_1_1800" style="mask-type:alpha" maskUnits="userSpaceOnUse" x="20" y="23" width="4" height="4">
<path d="M23.8027 24.1365L23.8047 24.1277C23.8381 23.9054 23.7122 23.6484 23.3535 23.4411C23.0317 23.2553 22.6019 23.1589 22.166 23.1589C21.7301 23.1589 21.3004 23.2553 20.9785 23.4411C20.6562 23.6273 20.5224 23.8548 20.5225 24.0574V24.1775H20.5195V24.8972H20.5225V25.0173C20.5226 25.2198 20.6562 25.4474 20.9785 25.6335C21.3004 25.8193 21.7301 25.9148 22.166 25.9148C22.6019 25.9148 23.0317 25.8193 23.3535 25.6335C23.7126 25.4262 23.8382 25.1685 23.8047 24.946L23.8027 24.9372V24.1365Z" fill="#9C9C9C" stroke="#212121" stroke-width="0.24"/>
</mask>
<g mask="url(#mask7_1_1800)">
<rect width="3.84" height="2.88" transform="matrix(-1 0 0 1 24.1697 23.0388)" fill="#06299D"/>
<path d="M20.4023 24.0571C20.4023 23.7965 20.5745 23.5359 20.9189 23.337C21.6077 22.9394 22.7244 22.9394 23.4131 23.337C23.7965 23.5584 23.9665 23.8563 23.923 24.1456V24.9283C23.9666 25.2176 23.7966 25.5156 23.4131 25.737C22.7244 26.1346 21.6077 26.1346 20.9189 25.737C20.5746 25.5382 20.4024 25.2777 20.4024 25.0171H20.3998V24.0571H20.4023Z" fill="#06299D"/>
<path d="M23.8027 24.1365L23.8047 24.1277C23.8381 23.9054 23.7122 23.6484 23.3535 23.4411C23.0317 23.2553 22.6019 23.1589 22.166 23.1589C21.7301 23.1589 21.3004 23.2553 20.9785 23.4411C20.6562 23.6273 20.5224 23.8548 20.5225 24.0574V24.1775H20.5195V24.8972H20.5225V25.0173C20.5226 25.2198 20.6562 25.4474 20.9785 25.6335C21.3004 25.8193 21.7301 25.9148 22.166 25.9148C22.6019 25.9148 23.0317 25.8193 23.3535 25.6335C23.7126 25.4262 23.8382 25.1685 23.8047 24.946L23.8027 24.9372V24.1365Z" stroke="white" stroke-opacity="0.7" stroke-width="0.24"/>
</g>
<mask id="mask8_1_1800" style="mask-type:alpha" maskUnits="userSpaceOnUse" x="20" y="22" width="4" height="4">
<circle cx="1.44" cy="1.44" r="1.44" transform="matrix(-0.866041 -0.499972 -0.866041 0.499972 24.6669 23.9987)" fill="#D9D9D9"/>
</mask>
<g mask="url(#mask8_1_1800)">
<rect width="2.88" height="2.88" transform="matrix(-0.866041 -0.499972 -0.866041 0.499972 24.6669 23.9987)" fill="#06299D"/>
</g>
<circle opacity="0.4" cx="1.44" cy="1.44" r="1.44" transform="matrix(-0.866041 -0.499972 -0.866041 0.499972 24.6669 23.9987)" fill="white"/>
<circle cx="1.44" cy="1.44" r="1.32" transform="matrix(-0.866041 -0.499972 -0.866041 0.499972 24.6669 23.9987)" stroke="white" stroke-opacity="0.7" stroke-width="0.24"/>
</g>
<g clip-path="url(#clip7_1_1800)">
<g clip-path="url(#clip8_1_1800)">
<mask id="mask9_1_1800" style="mask-type:alpha" maskUnits="userSpaceOnUse" x="24" y="16" width="5" height="3">
<circle cx="1.44" cy="1.44" r="1.44" transform="matrix(-0.866041 -0.499972 -0.866041 0.499972 28.899 17.7594)" fill="#D9D9D9"/>
</mask>
<g mask="url(#mask9_1_1800)">
<rect width="2.88" height="2.88" transform="matrix(-0.866041 -0.499972 -0.866041 0.499972 28.899 17.7594)" fill="#06299D"/>
</g>
<circle opacity="0.4" cx="1.44" cy="1.44" r="1.44" transform="matrix(-0.866041 -0.499972 -0.866041 0.499972 28.899 17.7594)" fill="white"/>
<circle cx="1.44" cy="1.44" r="1.32" transform="matrix(-0.866041 -0.499972 -0.866041 0.499972 28.899 17.7594)" stroke="white" stroke-opacity="0.7" stroke-width="0.24"/>
</g>
<mask id="mask10_1_1800" style="mask-type:alpha" maskUnits="userSpaceOnUse" x="24" y="15" width="5" height="4">
<path d="M28.0349 16.9374L28.0369 16.9286C28.0702 16.7063 27.9444 16.4493 27.5857 16.2421C27.2639 16.0563 26.8341 15.9598 26.3982 15.9598C25.9623 15.9598 25.5325 16.0563 25.2107 16.2421C24.8884 16.4282 24.7546 16.6557 24.7546 16.8583V16.9784H24.7517V17.6981H24.7546V17.8182C24.7548 18.0207 24.8884 18.2484 25.2107 18.4344C25.5325 18.6202 25.9623 18.7157 26.3982 18.7157C26.8341 18.7157 27.2639 18.6202 27.5857 18.4344C27.9447 18.2271 28.0704 17.9694 28.0369 17.7469L28.0349 17.7382V16.9374Z" fill="#9C9C9C" stroke="#212121" stroke-width="0.24"/>
</mask>
<g mask="url(#mask10_1_1800)">
<rect width="3.84" height="2.88" transform="matrix(-1 0 0 1 28.4019 15.8397)" fill="#06299D"/>
<path d="M24.6345 16.858C24.6345 16.5974 24.8066 16.3368 25.1511 16.1379C25.8398 15.7403 26.9565 15.7403 27.6453 16.1379C28.0287 16.3593 28.1987 16.6572 28.1552 16.9465V17.7293C28.1988 18.0185 28.0288 18.3165 27.6453 18.5379C26.9565 18.9355 25.8399 18.9355 25.1511 18.5379C24.8068 18.3391 24.6346 18.0786 24.6345 17.818H24.632V16.858H24.6345Z" fill="#06299D"/>
<path d="M28.0349 16.9374L28.0369 16.9286C28.0702 16.7063 27.9444 16.4493 27.5857 16.2421C27.2639 16.0563 26.8341 15.9598 26.3982 15.9598C25.9623 15.9598 25.5325 16.0563 25.2107 16.2421C24.8884 16.4282 24.7546 16.6557 24.7546 16.8583V16.9784H24.7517V17.6981H24.7546V17.8182C24.7548 18.0207 24.8884 18.2484 25.2107 18.4344C25.5325 18.6202 25.9623 18.7157 26.3982 18.7157C26.8341 18.7157 27.2639 18.6202 27.5857 18.4344C27.9447 18.2271 28.0704 17.9694 28.0369 17.7469L28.0349 17.7382V16.9374Z" stroke="white" stroke-opacity="0.7" stroke-width="0.24"/>
</g>
<mask id="mask11_1_1800" style="mask-type:alpha" maskUnits="userSpaceOnUse" x="24" y="15" width="5" height="3">
<circle cx="1.44" cy="1.44" r="1.44" transform="matrix(-0.866041 -0.499972 -0.866041 0.499972 28.899 16.7996)" fill="#D9D9D9"/>
</mask>
<g mask="url(#mask11_1_1800)">
<rect width="2.88" height="2.88" transform="matrix(-0.866041 -0.499972 -0.866041 0.499972 28.899 16.7996)" fill="#06299D"/>
</g>
<circle opacity="0.4" cx="1.44" cy="1.44" r="1.44" transform="matrix(-0.866041 -0.499972 -0.866041 0.499972 28.899 16.7996)" fill="white"/>
<circle cx="1.44" cy="1.44" r="1.32" transform="matrix(-0.866041 -0.499972 -0.866041 0.499972 28.899 16.7996)" stroke="white" stroke-opacity="0.7" stroke-width="0.24"/>
<g clip-path="url(#clip9_1_1800)">
<mask id="mask12_1_1800" style="mask-type:alpha" maskUnits="userSpaceOnUse" x="20" y="19" width="5" height="3">
<circle cx="1.44" cy="1.44" r="1.44" transform="matrix(-0.866041 -0.499972 -0.866041 0.499972 24.7429 20.1589)" fill="#D9D9D9"/>
</mask>
<g mask="url(#mask12_1_1800)">
<rect width="2.88" height="2.88" transform="matrix(-0.866041 -0.499972 -0.866041 0.499972 24.7429 20.1589)" fill="#06299D"/>
</g>
<circle opacity="0.4" cx="1.44" cy="1.44" r="1.44" transform="matrix(-0.866041 -0.499972 -0.866041 0.499972 24.7429 20.1589)" fill="white"/>
<circle cx="1.44" cy="1.44" r="1.32" transform="matrix(-0.866041 -0.499972 -0.866041 0.499972 24.7429 20.1589)" stroke="white" stroke-opacity="0.7" stroke-width="0.24"/>
</g>
<mask id="mask13_1_1800" style="mask-type:alpha" maskUnits="userSpaceOnUse" x="20" y="18" width="5" height="4">
<path d="M23.8788 19.3369L23.8807 19.3281C23.9141 19.1058 23.7883 18.8488 23.4296 18.6416C23.1077 18.4558 22.6779 18.3594 22.2421 18.3594C21.8062 18.3594 21.3764 18.4558 21.0546 18.6416C20.7323 18.8278 20.5985 19.0553 20.5985 19.2578V19.3779H20.5956V20.0977H20.5985V20.2178C20.5986 20.4203 20.7323 20.6479 21.0546 20.834C21.3764 21.0198 21.8062 21.1152 22.2421 21.1152C22.6779 21.1152 23.1077 21.0198 23.4296 20.834C23.7886 20.6267 23.9142 20.3689 23.8807 20.1465L23.8788 20.1377V19.3369Z" fill="#9C9C9C" stroke="#212121" stroke-width="0.24"/>
</mask>
<g mask="url(#mask13_1_1800)">
<rect width="3.84" height="2.88" transform="matrix(-1 0 0 1 24.2457 18.2393)" fill="#06299D"/>
<path d="M20.4784 19.2576C20.4783 18.997 20.6505 18.7363 20.995 18.5375C21.6837 18.1399 22.8004 18.1399 23.4892 18.5375C23.8726 18.7588 24.0426 19.0568 23.9991 19.346V20.1288C24.0426 20.4181 23.8727 20.7161 23.4892 20.9375C22.8004 21.3351 21.6837 21.3351 20.995 20.9375C20.6506 20.7387 20.4784 20.4781 20.4784 20.2176H20.4759V19.2576H20.4784Z" fill="#06299D"/>
<path d="M23.8788 19.3369L23.8807 19.3281C23.9141 19.1058 23.7883 18.8488 23.4296 18.6416C23.1077 18.4558 22.6779 18.3594 22.2421 18.3594C21.8062 18.3594 21.3764 18.4558 21.0546 18.6416C20.7323 18.8278 20.5985 19.0553 20.5985 19.2578V19.3779H20.5956V20.0977H20.5985V20.2178C20.5986 20.4203 20.7323 20.6479 21.0546 20.834C21.3764 21.0198 21.8062 21.1152 22.2421 21.1152C22.6779 21.1152 23.1077 21.0198 23.4296 20.834C23.7886 20.6267 23.9142 20.3689 23.8807 20.1465L23.8788 20.1377V19.3369Z" stroke="white" stroke-opacity="0.7" stroke-width="0.24"/>
</g>
<mask id="mask14_1_1800" style="mask-type:alpha" maskUnits="userSpaceOnUse" x="20" y="18" width="5" height="3">
<circle cx="1.44" cy="1.44" r="1.44" transform="matrix(-0.866041 -0.499972 -0.866041 0.499972 24.7429 19.1992)" fill="#D9D9D9"/>
</mask>
<g mask="url(#mask14_1_1800)">
<rect width="2.88" height="2.88" transform="matrix(-0.866041 -0.499972 -0.866041 0.499972 24.7429 19.1992)" fill="#06299D"/>
</g>
<circle opacity="0.4" cx="1.44" cy="1.44" r="1.44" transform="matrix(-0.866041 -0.499972 -0.866041 0.499972 24.7429 19.1992)" fill="white"/>
<circle cx="1.44" cy="1.44" r="1.32" transform="matrix(-0.866041 -0.499972 -0.866041 0.499972 24.7429 19.1992)" stroke="white" stroke-opacity="0.7" stroke-width="0.24"/>
<g clip-path="url(#clip10_1_1800)">
<mask id="mask15_1_1800" style="mask-type:alpha" maskUnits="userSpaceOnUse" x="16" y="21" width="4" height="3">
<circle cx="1.44" cy="1.44" r="1.44" transform="matrix(-0.866041 -0.499972 -0.866041 0.499972 20.5868 22.5584)" fill="#D9D9D9"/>
</mask>
<g mask="url(#mask15_1_1800)">
<rect width="2.88" height="2.88" transform="matrix(-0.866041 -0.499972 -0.866041 0.499972 20.5868 22.5584)" fill="#06299D"/>
</g>
<circle opacity="0.4" cx="1.44" cy="1.44" r="1.44" transform="matrix(-0.866041 -0.499972 -0.866041 0.499972 20.5868 22.5584)" fill="white"/>
<circle cx="1.44" cy="1.44" r="1.32" transform="matrix(-0.866041 -0.499972 -0.866041 0.499972 20.5868 22.5584)" stroke="white" stroke-opacity="0.7" stroke-width="0.24"/>
</g>
<mask id="mask16_1_1800" style="mask-type:alpha" maskUnits="userSpaceOnUse" x="16" y="20" width="4" height="4">
<path d="M19.7227 21.7365L19.7246 21.7277C19.758 21.5054 19.6321 21.2484 19.2734 21.0411C18.9516 20.8553 18.5218 20.7589 18.0859 20.7589C17.6501 20.7589 17.2203 20.8553 16.8984 21.0411C16.5761 21.2273 16.4423 21.4548 16.4424 21.6574V21.7775H16.4395V22.4972H16.4424V22.6173C16.4425 22.8198 16.5761 23.0474 16.8984 23.2335C17.2203 23.4193 17.6501 23.5148 18.0859 23.5148C18.5218 23.5148 18.9516 23.4193 19.2734 23.2335C19.6325 23.0262 19.7581 22.7685 19.7246 22.546L19.7227 22.5372V21.7365Z" fill="#9C9C9C" stroke="#212121" stroke-width="0.24"/>
</mask>
<g mask="url(#mask16_1_1800)">
<rect width="3.84" height="2.88" transform="matrix(-1 0 0 1 20.0896 20.6388)" fill="#06299D"/>
<path d="M16.3223 21.6571C16.3222 21.3965 16.4944 21.1359 16.8388 20.937C17.5276 20.5394 18.6443 20.5394 19.333 20.937C19.7165 21.1584 19.8864 21.4563 19.8429 21.7456V22.5283C19.8865 22.8176 19.7165 23.1156 19.333 23.337C18.6443 23.7346 17.5276 23.7346 16.8388 23.337C16.4945 23.1382 16.3223 22.8777 16.3223 22.6171H16.3197V21.6571H16.3223Z" fill="#06299D"/>
<path d="M19.7227 21.7365L19.7246 21.7277C19.758 21.5054 19.6321 21.2484 19.2734 21.0411C18.9516 20.8553 18.5218 20.7589 18.0859 20.7589C17.6501 20.7589 17.2203 20.8553 16.8984 21.0411C16.5761 21.2273 16.4423 21.4548 16.4424 21.6574V21.7775H16.4395V22.4972H16.4424V22.6173C16.4425 22.8198 16.5761 23.0474 16.8984 23.2335C17.2203 23.4193 17.6501 23.5148 18.0859 23.5148C18.5218 23.5148 18.9516 23.4193 19.2734 23.2335C19.6325 23.0262 19.7581 22.7685 19.7246 22.546L19.7227 22.5372V21.7365Z" stroke="white" stroke-opacity="0.7" stroke-width="0.24"/>
</g>
<mask id="mask17_1_1800" style="mask-type:alpha" maskUnits="userSpaceOnUse" x="16" y="20" width="4" height="3">
<circle cx="1.44" cy="1.44" r="1.44" transform="matrix(-0.866041 -0.499972 -0.866041 0.499972 20.5868 21.5987)" fill="#D9D9D9"/>
</mask>
<g mask="url(#mask17_1_1800)">
<rect width="2.88" height="2.88" transform="matrix(-0.866041 -0.499972 -0.866041 0.499972 20.5868 21.5987)" fill="#06299D"/>
</g>
<circle opacity="0.4" cx="1.44" cy="1.44" r="1.44" transform="matrix(-0.866041 -0.499972 -0.866041 0.499972 20.5868 21.5987)" fill="white"/>
<circle cx="1.44" cy="1.44" r="1.32" transform="matrix(-0.866041 -0.499972 -0.866041 0.499972 20.5868 21.5987)" stroke="white" stroke-opacity="0.7" stroke-width="0.24"/>
</g>
</g>
</g>
<defs>
<linearGradient id="paint0_linear_1_1800" x1="17" y1="34" x2="17" y2="0" gradientUnits="userSpaceOnUse">
<stop stop-color="#040027"/>
<stop offset="1"/>
</linearGradient>
<clipPath id="clip0_1_1800">
<rect width="25.68" height="21.36" fill="white" transform="matrix(-1 0 0 1 36.96 13.2)"/>
</clipPath>
<clipPath id="clip1_1_1800">
<rect width="22.573" height="19.2" fill="white" transform="matrix(-1 0 0 1 34.5601 15.36)"/>
</clipPath>
<clipPath id="clip2_1_1800">
<rect width="9.6" height="14.4" fill="white" transform="matrix(-0.866041 -0.499972 -0.866041 0.499972 34.5601 20.1597)"/>
</clipPath>
<clipPath id="clip3_1_1800">
<rect width="19.1972" height="8.31289" fill="white" transform="matrix(-0.866025 0.5 0.5 0.866025 32.5636 14.16)"/>
</clipPath>
<clipPath id="clip4_1_1800">
<rect width="4.79954" height="4.79954" fill="white" transform="matrix(-0.866041 -0.499972 -0.866041 0.499972 34.642 20.1594)"/>
</clipPath>
<clipPath id="clip5_1_1800">
<rect width="4.79954" height="4.79954" fill="white" transform="matrix(-0.866041 -0.499972 -0.866041 0.499972 30.4858 22.5589)"/>
</clipPath>
<clipPath id="clip6_1_1800">
<rect width="4.79954" height="4.79954" fill="white" transform="matrix(-0.866041 -0.499972 -0.866041 0.499972 26.3297 24.9584)"/>
</clipPath>
<clipPath id="clip7_1_1800">
<rect width="19.1972" height="8.31289" fill="white" transform="matrix(-0.866025 0.5 0.5 0.866025 28.4836 11.76)"/>
</clipPath>
<clipPath id="clip8_1_1800">
<rect width="4.79954" height="4.79954" fill="white" transform="matrix(-0.866041 -0.499972 -0.866041 0.499972 30.5619 17.7594)"/>
</clipPath>
<clipPath id="clip9_1_1800">
<rect width="4.79954" height="4.79954" fill="white" transform="matrix(-0.866041 -0.499972 -0.866041 0.499972 26.4058 20.1589)"/>
</clipPath>
<clipPath id="clip10_1_1800">
<rect width="4.79954" height="4.79954" fill="white" transform="matrix(-0.866041 -0.499972 -0.866041 0.499972 22.2496 22.5584)"/>
</clipPath>
</defs>
</svg>
