<svg width="200" height="200" viewBox="0 0 200 200" fill="none" xmlns="http://www.w3.org/2000/svg">
<rect x="29.1666" y="29.1667" width="141.667" height="141.667" rx="41.6667" fill="url(#paint0_linear_1_1796)"/>
<g clip-path="url(#clip0_1_1796)">
<rect width="60" height="24" transform="matrix(0.866009 0.500028 3.18609e-05 1 56 84)" fill="#06299D"/>
<rect x="0.433021" y="0.750014" width="59" height="23" transform="matrix(0.866009 0.500028 3.18609e-05 1 56.058 83.7835)" stroke="white" stroke-opacity="0.7"/>
<rect width="40" height="24" transform="matrix(0.866009 -0.500028 -3.18609e-05 1 108.001 114.001)" fill="#06299D"/>
<rect width="40" height="24" transform="matrix(0.866009 -0.500028 -3.18609e-05 1 108.001 114.001)" fill="black" fill-opacity="0.3"/>
<rect x="0.432989" y="0.249986" width="39" height="23" transform="matrix(0.866009 -0.500028 -3.18609e-05 1 108.059 114.218)" stroke="white" stroke-opacity="0.7"/>
<g clip-path="url(#clip1_1_1796)">
<rect width="40" height="60" transform="matrix(0.866041 -0.499972 0.866041 0.499972 56 83.9989)" fill="white" fill-opacity="0.7"/>
<rect width="40" height="60" transform="matrix(0.866041 -0.499972 0.866041 0.499972 56 83.9989)" fill="#06299D"/>
<rect opacity="0.4" width="40" height="60" transform="matrix(0.866041 -0.499972 0.866041 0.499972 56 83.9989)" fill="white"/>
<rect x="0.866041" width="39" height="59" transform="matrix(0.866041 -0.499972 0.866041 0.499972 56.116 84.4319)" stroke="white" stroke-opacity="0.7"/>
</g>
<g clip-path="url(#clip2_1_1796)">
<g clip-path="url(#clip3_1_1796)">
<mask id="mask0_1_1796" style="mask-type:alpha" maskUnits="userSpaceOnUse" x="65" y="79" width="16" height="10">
<circle cx="6" cy="6" r="6" transform="matrix(0.866041 -0.499972 0.866041 0.499972 62.5873 83.9973)" fill="#D9D9D9"/>
</mask>
<g mask="url(#mask0_1_1796)">
<rect width="12" height="12" transform="matrix(0.866041 -0.499972 0.866041 0.499972 62.5873 83.9973)" fill="#06299D"/>
</g>
<circle opacity="0.4" cx="6" cy="6" r="6" transform="matrix(0.866041 -0.499972 0.866041 0.499972 62.5873 83.9973)" fill="white"/>
<circle cx="6" cy="6" r="5.5" transform="matrix(0.866041 -0.499972 0.866041 0.499972 62.5873 83.9973)" stroke="white" stroke-opacity="0.7"/>
</g>
<mask id="mask1_1_1796" style="mask-type:alpha" maskUnits="userSpaceOnUse" x="65" y="75" width="16" height="14">
<path d="M66.1863 80.5731L66.1814 80.5359C66.042 79.6092 66.5653 78.5383 68.0613 77.6746C69.4023 76.9005 71.1914 76.4988 73.0076 76.4988C74.8237 76.4988 76.6128 76.9004 77.9539 77.6746C79.2979 78.4506 79.8564 79.3978 79.8562 80.242V80.742H79.8669V83.742H79.8562V84.242C79.856 85.086 79.2974 86.0328 77.9539 86.8084C76.6129 87.5826 74.8237 87.9842 73.0076 87.9842C71.1914 87.9842 69.4023 87.5826 68.0613 86.8084C66.565 85.9446 66.0418 84.873 66.1814 83.9461L66.1863 83.909V80.5731Z" fill="#9C9C9C" stroke="#212121"/>
</mask>
<g mask="url(#mask1_1_1796)">
<rect width="16" height="12" transform="translate(64.6589 75.9988)" fill="#06299D"/>
<path d="M80.3562 80.2418C80.3565 79.1559 79.639 78.0699 78.2039 77.2414C75.334 75.5846 70.6812 75.5846 67.8114 77.2414C66.2137 78.1638 65.5055 79.4051 65.6867 80.6103V83.8719C65.5052 85.0773 66.2134 86.3188 67.8113 87.2413C70.6811 88.8981 75.334 88.8981 78.2038 87.2413C79.6385 86.413 80.356 85.3274 80.3561 84.2418H80.3667V80.2418H80.3562Z" fill="#06299D"/>
<path d="M66.1863 80.5731L66.1814 80.5359C66.042 79.6092 66.5653 78.5383 68.0613 77.6746C69.4023 76.9005 71.1914 76.4988 73.0076 76.4988C74.8237 76.4988 76.6128 76.9004 77.9539 77.6746C79.2979 78.4506 79.8564 79.3978 79.8562 80.242V80.742H79.8669V83.742H79.8562V84.242C79.856 85.086 79.2974 86.0328 77.9539 86.8084C76.6129 87.5826 74.8237 87.9842 73.0076 87.9842C71.1914 87.9842 69.4023 87.5826 68.0613 86.8084C66.565 85.9446 66.0418 84.873 66.1814 83.9461L66.1863 83.909V80.5731Z" stroke="white" stroke-opacity="0.7"/>
</g>
<mask id="mask2_1_1796" style="mask-type:alpha" maskUnits="userSpaceOnUse" x="65" y="75" width="16" height="10">
<circle cx="6" cy="6" r="6" transform="matrix(0.866041 -0.499972 0.866041 0.499972 62.5873 79.9985)" fill="#D9D9D9"/>
</mask>
<g mask="url(#mask2_1_1796)">
<rect width="12" height="12" transform="matrix(0.866041 -0.499972 0.866041 0.499972 62.5873 79.9985)" fill="#06299D"/>
</g>
<circle opacity="0.4" cx="6" cy="6" r="6" transform="matrix(0.866041 -0.499972 0.866041 0.499972 62.5873 79.9985)" fill="white"/>
<circle cx="6" cy="6" r="5.5" transform="matrix(0.866041 -0.499972 0.866041 0.499972 62.5873 79.9985)" stroke="white" stroke-opacity="0.7"/>
<g clip-path="url(#clip4_1_1796)">
<mask id="mask3_1_1796" style="mask-type:alpha" maskUnits="userSpaceOnUse" x="82" y="89" width="16" height="10">
<circle cx="6" cy="6" r="6" transform="matrix(0.866041 -0.499972 0.866041 0.499972 79.9044 93.9954)" fill="#D9D9D9"/>
</mask>
<g mask="url(#mask3_1_1796)">
<rect width="12" height="12" transform="matrix(0.866041 -0.499972 0.866041 0.499972 79.9044 93.9954)" fill="#06299D"/>
</g>
<circle opacity="0.4" cx="6" cy="6" r="6" transform="matrix(0.866041 -0.499972 0.866041 0.499972 79.9044 93.9954)" fill="white"/>
<circle cx="6" cy="6" r="5.5" transform="matrix(0.866041 -0.499972 0.866041 0.499972 79.9044 93.9954)" stroke="white" stroke-opacity="0.7"/>
</g>
<mask id="mask4_1_1796" style="mask-type:alpha" maskUnits="userSpaceOnUse" x="82" y="85" width="16" height="14">
<path d="M83.5034 90.5711L83.4985 90.534C83.3592 89.6073 83.8824 88.5364 85.3784 87.6727C86.7194 86.8985 88.5086 86.4969 90.3247 86.4969C92.1409 86.4969 93.93 86.8985 95.271 87.6727C96.615 88.4486 97.1735 89.3959 97.1733 90.2401V90.7401H97.1841V93.7401H97.1733V94.2401C97.1731 95.0841 96.6145 96.0309 95.271 96.8065C93.93 97.5807 92.1409 97.9823 90.3247 97.9823C88.5086 97.9823 86.7194 97.5807 85.3784 96.8065C83.8821 95.9427 83.359 94.871 83.4985 93.9442L83.5034 93.9071V90.5711Z" fill="#9C9C9C" stroke="#212121"/>
</mask>
<g mask="url(#mask4_1_1796)">
<rect width="16" height="12" transform="translate(81.9761 85.9969)" fill="#06299D"/>
<path d="M97.6734 90.2399C97.6736 89.154 96.9562 88.068 95.521 87.2395C92.6512 85.5827 87.9983 85.5827 85.1285 87.2395C83.5308 88.1618 82.8226 89.4032 83.0038 90.6084V93.87C82.8224 95.0753 83.5306 96.3169 85.1284 97.2394C87.9982 98.8961 92.6511 98.8961 95.5209 97.2394C96.9557 96.4111 97.6731 95.3255 97.6733 94.2399H97.6838V90.2399H97.6734Z" fill="#06299D"/>
<path d="M83.5034 90.5711L83.4985 90.534C83.3592 89.6073 83.8824 88.5364 85.3784 87.6727C86.7194 86.8985 88.5086 86.4969 90.3247 86.4969C92.1409 86.4969 93.93 86.8985 95.271 87.6727C96.615 88.4486 97.1735 89.3959 97.1733 90.2401V90.7401H97.1841V93.7401H97.1733V94.2401C97.1731 95.0841 96.6145 96.0309 95.271 96.8065C93.93 97.5807 92.1409 97.9823 90.3247 97.9823C88.5086 97.9823 86.7194 97.5807 85.3784 96.8065C83.8821 95.9427 83.359 94.871 83.4985 93.9442L83.5034 93.9071V90.5711Z" stroke="white" stroke-opacity="0.7"/>
</g>
<mask id="mask5_1_1796" style="mask-type:alpha" maskUnits="userSpaceOnUse" x="82" y="85" width="16" height="10">
<circle cx="6" cy="6" r="6" transform="matrix(0.866041 -0.499972 0.866041 0.499972 79.9044 89.9966)" fill="#D9D9D9"/>
</mask>
<g mask="url(#mask5_1_1796)">
<rect width="12" height="12" transform="matrix(0.866041 -0.499972 0.866041 0.499972 79.9044 89.9966)" fill="#06299D"/>
</g>
<circle opacity="0.4" cx="6" cy="6" r="6" transform="matrix(0.866041 -0.499972 0.866041 0.499972 79.9044 89.9966)" fill="white"/>
<circle cx="6" cy="6" r="5.5" transform="matrix(0.866041 -0.499972 0.866041 0.499972 79.9044 89.9966)" stroke="white" stroke-opacity="0.7"/>
<g clip-path="url(#clip5_1_1796)">
<mask id="mask6_1_1796" style="mask-type:alpha" maskUnits="userSpaceOnUse" x="100" y="99" width="15" height="10">
<circle cx="6" cy="6" r="6" transform="matrix(0.866041 -0.499972 0.866041 0.499972 97.2217 103.993)" fill="#D9D9D9"/>
</mask>
<g mask="url(#mask6_1_1796)">
<rect width="12" height="12" transform="matrix(0.866041 -0.499972 0.866041 0.499972 97.2217 103.993)" fill="#06299D"/>
</g>
<circle opacity="0.4" cx="6" cy="6" r="6" transform="matrix(0.866041 -0.499972 0.866041 0.499972 97.2217 103.993)" fill="white"/>
<circle cx="6" cy="6" r="5.5" transform="matrix(0.866041 -0.499972 0.866041 0.499972 97.2217 103.993)" stroke="white" stroke-opacity="0.7"/>
</g>
<mask id="mask7_1_1796" style="mask-type:alpha" maskUnits="userSpaceOnUse" x="100" y="95" width="16" height="14">
<path d="M100.821 100.569L100.816 100.532C100.676 99.6054 101.2 98.5345 102.696 97.6708C104.037 96.8966 105.826 96.495 107.642 96.495C109.458 96.495 111.247 96.8966 112.588 97.6708C113.932 98.4467 114.491 99.3939 114.491 100.238V100.738H114.501V103.738H114.491V104.238C114.49 105.082 113.932 106.029 112.588 106.805C111.247 107.579 109.458 107.98 107.642 107.98C105.826 107.98 104.037 107.579 102.696 106.805C101.199 105.941 100.676 104.869 100.816 103.942L100.821 103.905V100.569Z" fill="#9C9C9C" stroke="#212121"/>
</mask>
<g mask="url(#mask7_1_1796)">
<rect width="16" height="12" transform="translate(99.2933 95.995)" fill="#06299D"/>
<path d="M114.991 100.238C114.991 99.1521 114.273 98.0661 112.838 97.2376C109.968 95.5808 105.316 95.5808 102.446 97.2376C100.848 98.1599 100.14 99.4013 100.321 100.607V103.868C100.14 105.073 100.848 106.315 102.446 107.237C105.316 108.894 109.968 108.894 112.838 107.237C114.273 106.409 114.99 105.324 114.991 104.238H115.001V100.238H114.991Z" fill="#06299D"/>
<path d="M100.821 100.569L100.816 100.532C100.676 99.6054 101.2 98.5345 102.696 97.6708C104.037 96.8966 105.826 96.495 107.642 96.495C109.458 96.495 111.247 96.8966 112.588 97.6708C113.932 98.4467 114.491 99.3939 114.491 100.238V100.738H114.501V103.738H114.491V104.238C114.49 105.082 113.932 106.029 112.588 106.805C111.247 107.579 109.458 107.98 107.642 107.98C105.826 107.98 104.037 107.579 102.696 106.805C101.199 105.941 100.676 104.869 100.816 103.942L100.821 103.905V100.569Z" stroke="white" stroke-opacity="0.7"/>
</g>
<mask id="mask8_1_1796" style="mask-type:alpha" maskUnits="userSpaceOnUse" x="100" y="95" width="15" height="10">
<circle cx="6" cy="6" r="6" transform="matrix(0.866041 -0.499972 0.866041 0.499972 97.2217 99.9946)" fill="#D9D9D9"/>
</mask>
<g mask="url(#mask8_1_1796)">
<rect width="12" height="12" transform="matrix(0.866041 -0.499972 0.866041 0.499972 97.2217 99.9946)" fill="#06299D"/>
</g>
<circle opacity="0.4" cx="6" cy="6" r="6" transform="matrix(0.866041 -0.499972 0.866041 0.499972 97.2217 99.9946)" fill="white"/>
<circle cx="6" cy="6" r="5.5" transform="matrix(0.866041 -0.499972 0.866041 0.499972 97.2217 99.9946)" stroke="white" stroke-opacity="0.7"/>
</g>
<g clip-path="url(#clip6_1_1796)">
<g clip-path="url(#clip7_1_1796)">
<mask id="mask9_1_1796" style="mask-type:alpha" maskUnits="userSpaceOnUse" x="82" y="69" width="16" height="10">
<circle cx="6" cy="6" r="6" transform="matrix(0.866041 -0.499972 0.866041 0.499972 79.5874 73.9973)" fill="#D9D9D9"/>
</mask>
<g mask="url(#mask9_1_1796)">
<rect width="12" height="12" transform="matrix(0.866041 -0.499972 0.866041 0.499972 79.5874 73.9973)" fill="#06299D"/>
</g>
<circle opacity="0.4" cx="6" cy="6" r="6" transform="matrix(0.866041 -0.499972 0.866041 0.499972 79.5874 73.9973)" fill="white"/>
<circle cx="6" cy="6" r="5.5" transform="matrix(0.866041 -0.499972 0.866041 0.499972 79.5874 73.9973)" stroke="white" stroke-opacity="0.7"/>
</g>
<mask id="mask10_1_1796" style="mask-type:alpha" maskUnits="userSpaceOnUse" x="82" y="65" width="16" height="14">
<path d="M83.1864 70.5731L83.1815 70.5359C83.0422 69.6092 83.5654 68.5383 85.0614 67.6746C86.4024 66.9005 88.1915 66.4988 90.0077 66.4988C91.8239 66.4988 93.613 66.9004 94.954 67.6746C96.298 68.4506 96.8565 69.3978 96.8563 70.242V70.742H96.8671V73.742H96.8563V74.242C96.8561 75.086 96.2975 76.0328 94.954 76.8084C93.613 77.5826 91.8238 77.9842 90.0077 77.9842C88.1915 77.9842 86.4024 77.5826 85.0614 76.8084C83.5651 75.9446 83.042 74.873 83.1815 73.9461L83.1864 73.909V70.5731Z" fill="#9C9C9C" stroke="#212121"/>
</mask>
<g mask="url(#mask10_1_1796)">
<rect width="16" height="12" transform="translate(81.6591 65.9988)" fill="#06299D"/>
<path d="M97.3563 70.2418C97.3566 69.1559 96.6391 68.0699 95.204 67.2414C92.3342 65.5846 87.6813 65.5846 84.8115 67.2414C83.2138 68.1638 82.5056 69.4051 82.6868 70.6103V73.8719C82.5053 75.0773 83.2135 76.3188 84.8114 77.2413C87.6812 78.8981 92.3341 78.8981 95.2039 77.2413C96.6387 76.413 97.3561 75.3274 97.3563 74.2418H97.3668V70.2418H97.3563Z" fill="#06299D"/>
<path d="M83.1864 70.5731L83.1815 70.5359C83.0422 69.6092 83.5654 68.5383 85.0614 67.6746C86.4024 66.9005 88.1915 66.4988 90.0077 66.4988C91.8239 66.4988 93.613 66.9004 94.954 67.6746C96.298 68.4506 96.8565 69.3978 96.8563 70.242V70.742H96.8671V73.742H96.8563V74.242C96.8561 75.086 96.2975 76.0328 94.954 76.8084C93.613 77.5826 91.8238 77.9842 90.0077 77.9842C88.1915 77.9842 86.4024 77.5826 85.0614 76.8084C83.5651 75.9446 83.042 74.873 83.1815 73.9461L83.1864 73.909V70.5731Z" stroke="white" stroke-opacity="0.7"/>
</g>
<mask id="mask11_1_1796" style="mask-type:alpha" maskUnits="userSpaceOnUse" x="82" y="65" width="16" height="10">
<circle cx="6" cy="6" r="6" transform="matrix(0.866041 -0.499972 0.866041 0.499972 79.5874 69.9985)" fill="#D9D9D9"/>
</mask>
<g mask="url(#mask11_1_1796)">
<rect width="12" height="12" transform="matrix(0.866041 -0.499972 0.866041 0.499972 79.5874 69.9985)" fill="#06299D"/>
</g>
<circle opacity="0.4" cx="6" cy="6" r="6" transform="matrix(0.866041 -0.499972 0.866041 0.499972 79.5874 69.9985)" fill="white"/>
<circle cx="6" cy="6" r="5.5" transform="matrix(0.866041 -0.499972 0.866041 0.499972 79.5874 69.9985)" stroke="white" stroke-opacity="0.7"/>
<g clip-path="url(#clip8_1_1796)">
<mask id="mask12_1_1796" style="mask-type:alpha" maskUnits="userSpaceOnUse" x="99" y="79" width="16" height="10">
<circle cx="6" cy="6" r="6" transform="matrix(0.866041 -0.499972 0.866041 0.499972 96.9045 83.9954)" fill="#D9D9D9"/>
</mask>
<g mask="url(#mask12_1_1796)">
<rect width="12" height="12" transform="matrix(0.866041 -0.499972 0.866041 0.499972 96.9045 83.9954)" fill="#06299D"/>
</g>
<circle opacity="0.4" cx="6" cy="6" r="6" transform="matrix(0.866041 -0.499972 0.866041 0.499972 96.9045 83.9954)" fill="white"/>
<circle cx="6" cy="6" r="5.5" transform="matrix(0.866041 -0.499972 0.866041 0.499972 96.9045 83.9954)" stroke="white" stroke-opacity="0.7"/>
</g>
<mask id="mask13_1_1796" style="mask-type:alpha" maskUnits="userSpaceOnUse" x="99" y="75" width="16" height="14">
<path d="M100.504 80.5711L100.499 80.534C100.359 79.6073 100.883 78.5364 102.379 77.6727C103.72 76.8985 105.509 76.4969 107.325 76.4969C109.141 76.4969 110.93 76.8985 112.271 77.6727C113.615 78.4486 114.174 79.3959 114.173 80.2401V80.7401H114.184V83.7401H114.173V84.2401C114.173 85.0841 113.615 86.0309 112.271 86.8065C110.93 87.5807 109.141 87.9823 107.325 87.9823C105.509 87.9823 103.72 87.5807 102.379 86.8065C100.882 85.9427 100.359 84.871 100.499 83.9442L100.504 83.9071V80.5711Z" fill="#9C9C9C" stroke="#212121"/>
</mask>
<g mask="url(#mask13_1_1796)">
<rect width="16" height="12" transform="translate(98.9762 75.9969)" fill="#06299D"/>
<path d="M114.673 80.2399C114.674 79.154 113.956 78.068 112.521 77.2395C109.651 75.5827 104.998 75.5827 102.129 77.2395C100.531 78.1618 99.8227 79.4032 100.004 80.6084V83.87C99.8225 85.0753 100.531 86.3169 102.129 87.2394C104.998 88.8961 109.651 88.8961 112.521 87.2394C113.956 86.4111 114.673 85.3255 114.673 84.2399H114.684V80.2399H114.673Z" fill="#06299D"/>
<path d="M100.504 80.5711L100.499 80.534C100.359 79.6073 100.883 78.5364 102.379 77.6727C103.72 76.8985 105.509 76.4969 107.325 76.4969C109.141 76.4969 110.93 76.8985 112.271 77.6727C113.615 78.4486 114.174 79.3959 114.173 80.2401V80.7401H114.184V83.7401H114.173V84.2401C114.173 85.0841 113.615 86.0309 112.271 86.8065C110.93 87.5807 109.141 87.9823 107.325 87.9823C105.509 87.9823 103.72 87.5807 102.379 86.8065C100.882 85.9427 100.359 84.871 100.499 83.9442L100.504 83.9071V80.5711Z" stroke="white" stroke-opacity="0.7"/>
</g>
<mask id="mask14_1_1796" style="mask-type:alpha" maskUnits="userSpaceOnUse" x="99" y="75" width="16" height="10">
<circle cx="6" cy="6" r="6" transform="matrix(0.866041 -0.499972 0.866041 0.499972 96.9045 79.9966)" fill="#D9D9D9"/>
</mask>
<g mask="url(#mask14_1_1796)">
<rect width="12" height="12" transform="matrix(0.866041 -0.499972 0.866041 0.499972 96.9045 79.9966)" fill="#06299D"/>
</g>
<circle opacity="0.4" cx="6" cy="6" r="6" transform="matrix(0.866041 -0.499972 0.866041 0.499972 96.9045 79.9966)" fill="white"/>
<circle cx="6" cy="6" r="5.5" transform="matrix(0.866041 -0.499972 0.866041 0.499972 96.9045 79.9966)" stroke="white" stroke-opacity="0.7"/>
<g clip-path="url(#clip9_1_1796)">
<mask id="mask15_1_1796" style="mask-type:alpha" maskUnits="userSpaceOnUse" x="117" y="89" width="15" height="10">
<circle cx="6" cy="6" r="6" transform="matrix(0.866041 -0.499972 0.866041 0.499972 114.222 93.9935)" fill="#D9D9D9"/>
</mask>
<g mask="url(#mask15_1_1796)">
<rect width="12" height="12" transform="matrix(0.866041 -0.499972 0.866041 0.499972 114.222 93.9935)" fill="#06299D"/>
</g>
<circle opacity="0.4" cx="6" cy="6" r="6" transform="matrix(0.866041 -0.499972 0.866041 0.499972 114.222 93.9935)" fill="white"/>
<circle cx="6" cy="6" r="5.5" transform="matrix(0.866041 -0.499972 0.866041 0.499972 114.222 93.9935)" stroke="white" stroke-opacity="0.7"/>
</g>
<mask id="mask16_1_1796" style="mask-type:alpha" maskUnits="userSpaceOnUse" x="117" y="85" width="16" height="14">
<path d="M117.821 90.5692L117.816 90.5321C117.677 89.6054 118.2 88.5345 119.696 87.6708C121.037 86.8966 122.826 86.495 124.642 86.495C126.458 86.495 128.247 86.8966 129.588 87.6708C130.932 88.4467 131.491 89.3939 131.491 90.2382V90.7382H131.501V93.7382H131.491V94.2382C131.49 95.0821 130.932 96.0289 129.588 96.8046C128.247 97.5787 126.458 97.9804 124.642 97.9804C122.826 97.9804 121.037 97.5787 119.696 96.8046C118.2 95.9408 117.676 94.8691 117.816 93.9423L117.821 93.9052V90.5692Z" fill="#9C9C9C" stroke="#212121"/>
</mask>
<g mask="url(#mask16_1_1796)">
<rect width="16" height="12" transform="translate(116.293 85.995)" fill="#06299D"/>
<path d="M131.991 90.238C131.991 89.1521 131.274 88.0661 129.838 87.2376C126.969 85.5808 122.316 85.5808 119.446 87.2376C117.848 88.1599 117.14 89.4013 117.321 90.6065V93.8681C117.14 95.0734 117.848 96.315 119.446 97.2375C122.316 98.8942 126.969 98.8942 129.838 97.2375C131.273 96.4092 131.991 95.3236 131.991 94.238H132.001V90.238H131.991Z" fill="#06299D"/>
<path d="M117.821 90.5692L117.816 90.5321C117.677 89.6054 118.2 88.5345 119.696 87.6708C121.037 86.8966 122.826 86.495 124.642 86.495C126.458 86.495 128.247 86.8966 129.588 87.6708C130.932 88.4467 131.491 89.3939 131.491 90.2382V90.7382H131.501V93.7382H131.491V94.2382C131.49 95.0821 130.932 96.0289 129.588 96.8046C128.247 97.5787 126.458 97.9804 124.642 97.9804C122.826 97.9804 121.037 97.5787 119.696 96.8046C118.2 95.9408 117.676 94.8691 117.816 93.9423L117.821 93.9052V90.5692Z" stroke="white" stroke-opacity="0.7"/>
</g>
<mask id="mask17_1_1796" style="mask-type:alpha" maskUnits="userSpaceOnUse" x="117" y="85" width="15" height="10">
<circle cx="6" cy="6" r="6" transform="matrix(0.866041 -0.499972 0.866041 0.499972 114.222 89.9946)" fill="#D9D9D9"/>
</mask>
<g mask="url(#mask17_1_1796)">
<rect width="12" height="12" transform="matrix(0.866041 -0.499972 0.866041 0.499972 114.222 89.9946)" fill="#06299D"/>
</g>
<circle opacity="0.4" cx="6" cy="6" r="6" transform="matrix(0.866041 -0.499972 0.866041 0.499972 114.222 89.9946)" fill="white"/>
<circle cx="6" cy="6" r="5.5" transform="matrix(0.866041 -0.499972 0.866041 0.499972 114.222 89.9946)" stroke="white" stroke-opacity="0.7"/>
</g>
</g>
<defs>
<linearGradient id="paint0_linear_1_1796" x1="100" y1="29.1667" x2="100" y2="170.833" gradientUnits="userSpaceOnUse">
<stop stop-color="#040027"/>
<stop offset="1"/>
</linearGradient>
<clipPath id="clip0_1_1796">
<rect width="94" height="80" fill="white" transform="translate(56 64)"/>
</clipPath>
<clipPath id="clip1_1_1796">
<rect width="40" height="60" fill="white" transform="matrix(0.866041 -0.499972 0.866041 0.499972 56 83.9989)"/>
</clipPath>
<clipPath id="clip2_1_1796">
<rect width="79.9885" height="34.6371" fill="white" transform="translate(64.3185 59) rotate(30)"/>
</clipPath>
<clipPath id="clip3_1_1796">
<rect width="19.9981" height="19.9981" fill="white" transform="matrix(0.866041 -0.499972 0.866041 0.499972 55.6589 83.9973)"/>
</clipPath>
<clipPath id="clip4_1_1796">
<rect width="19.9981" height="19.9981" fill="white" transform="matrix(0.866041 -0.499972 0.866041 0.499972 72.9761 93.9954)"/>
</clipPath>
<clipPath id="clip5_1_1796">
<rect width="19.9981" height="19.9981" fill="white" transform="matrix(0.866041 -0.499972 0.866041 0.499972 90.2933 103.993)"/>
</clipPath>
<clipPath id="clip6_1_1796">
<rect width="79.9885" height="34.6371" fill="white" transform="translate(81.3186 49) rotate(30)"/>
</clipPath>
<clipPath id="clip7_1_1796">
<rect width="19.9981" height="19.9981" fill="white" transform="matrix(0.866041 -0.499972 0.866041 0.499972 72.6591 73.9973)"/>
</clipPath>
<clipPath id="clip8_1_1796">
<rect width="19.9981" height="19.9981" fill="white" transform="matrix(0.866041 -0.499972 0.866041 0.499972 89.9762 83.9954)"/>
</clipPath>
<clipPath id="clip9_1_1796">
<rect width="19.9981" height="19.9981" fill="white" transform="matrix(0.866041 -0.499972 0.866041 0.499972 107.293 93.9935)"/>
</clipPath>
</defs>
</svg>
